<svg width="940" height="156" viewBox="0 0 940 156" fill="none" xmlns="http://www.w3.org/2000/svg">
<path d="M205.084 22.7117C197.843 10.1687 181.804 5.8711 169.261 13.1128C156.718 20.3545 152.42 36.3932 159.662 48.9363L208.362 133.288C215.604 145.831 231.643 150.129 244.186 142.887C256.729 135.645 261.026 119.606 253.785 107.063L205.084 22.7117Z" fill="#010D5B"/>
<path d="M204.976 48.9357C212.218 36.3927 207.92 20.354 195.377 13.1123C182.834 5.87057 166.795 10.1681 159.554 22.7112L110.853 107.063C103.611 119.606 107.909 135.645 120.452 142.886C132.995 150.128 149.034 145.83 156.275 133.287L204.976 48.9357Z" fill="#04D4FF"/>
<path d="M107.471 22.7125C100.229 10.1695 84.1907 5.87195 71.6477 13.1137C59.1047 20.3554 54.8072 36.3941 62.0489 48.9371L110.749 133.289C117.991 145.832 134.03 150.129 146.573 142.888C159.116 135.646 163.413 119.607 156.172 107.064L107.471 22.7125Z" fill="#010D5B"/>
<path d="M107.367 48.9371C114.609 36.394 110.311 20.3553 97.7682 13.1136C85.2252 5.87192 69.1865 10.1695 61.9447 22.7125L13.2443 107.064C6.00256 119.607 10.3001 135.646 22.8431 142.888C35.3862 150.129 51.4249 145.832 58.6666 133.289L107.367 48.9371Z" fill="#04D4FF"/>
<path d="M340.053 84.5938L334.944 89.75L303.444 63.4531L334.944 37.1562L340.053 42.3594L314.506 63.3594L340.053 84.5938ZM390.866 89V55.2031C390.866 53.7344 390.803 52.5312 390.678 51.5938C390.584 50.6562 390.413 49.9219 390.163 49.3906C389.944 48.8281 389.647 48.4375 389.272 48.2188C388.928 48 388.491 47.8906 387.959 47.8906C387.334 47.8906 386.756 48.0781 386.225 48.4531C385.694 48.8281 385.116 49.4375 384.491 50.2812C383.897 51.125 383.225 52.25 382.475 53.6562C381.756 55.0312 380.897 56.7344 379.897 58.7656V89H372.444V56.0938C372.444 54.375 372.381 52.9844 372.256 51.9219C372.163 50.8594 371.991 50.0312 371.741 49.4375C371.522 48.8438 371.225 48.4375 370.85 48.2188C370.475 48 370.022 47.8906 369.491 47.8906C368.928 47.8906 368.397 48.0469 367.897 48.3594C367.397 48.6719 366.834 49.2344 366.209 50.0469C365.616 50.8594 364.944 51.9688 364.194 53.375C363.444 54.7812 362.553 56.5781 361.522 58.7656V89H354.022V41.9375H360.256L360.631 50.8906C361.444 49.1094 362.225 47.5938 362.975 46.3438C363.756 45.0938 364.553 44.0938 365.366 43.3438C366.178 42.5625 367.038 42 367.944 41.6562C368.881 41.2812 369.913 41.0938 371.038 41.0938C373.569 41.0938 375.491 41.9219 376.803 43.5781C378.116 45.2344 378.772 47.7969 378.772 51.2656C379.522 49.6406 380.256 48.2031 380.975 46.9531C381.694 45.6719 382.459 44.6094 383.272 43.7656C384.116 42.8906 385.038 42.2344 386.038 41.7969C387.038 41.3281 388.194 41.0938 389.506 41.0938C395.413 41.0938 398.366 45.6406 398.366 54.7344V89H390.866ZM451.053 65.0938C451.053 68.75 450.538 72.1094 449.506 75.1719C448.475 78.2031 446.991 80.8125 445.053 83C443.116 85.1562 440.756 86.8438 437.975 88.0625C435.194 89.25 432.038 89.8438 428.506 89.8438C425.131 89.8438 422.1 89.3281 419.413 88.2969C416.756 87.2344 414.491 85.6875 412.616 83.6562C410.772 81.625 409.35 79.1094 408.35 76.1094C407.381 73.1094 406.897 69.6562 406.897 65.75C406.897 62.0938 407.413 58.7656 408.444 55.7656C409.475 52.7344 410.959 50.1406 412.897 47.9844C414.834 45.7969 417.194 44.1094 419.975 42.9219C422.756 41.7031 425.913 41.0938 429.444 41.0938C432.819 41.0938 435.834 41.625 438.491 42.6875C441.178 43.7188 443.444 45.25 445.288 47.2812C447.163 49.2812 448.584 51.7812 449.553 54.7812C450.553 57.7812 451.053 61.2188 451.053 65.0938ZM442.709 65.4688C442.709 62.5625 442.381 60.0312 441.725 57.875C441.1 55.6875 440.194 53.875 439.006 52.4375C437.819 50.9688 436.366 49.875 434.647 49.1562C432.959 48.4062 431.069 48.0312 428.975 48.0312C426.538 48.0312 424.444 48.5156 422.694 49.4844C420.975 50.4219 419.553 51.6875 418.428 53.2812C417.334 54.875 416.522 56.7344 415.991 58.8594C415.491 60.9531 415.241 63.1562 415.241 65.4688C415.241 68.375 415.553 70.9219 416.178 73.1094C416.834 75.2969 417.756 77.125 418.944 78.5938C420.131 80.0312 421.569 81.125 423.256 81.875C424.944 82.5938 426.85 82.9531 428.975 82.9531C431.413 82.9531 433.491 82.4844 435.209 81.5469C436.959 80.5781 438.381 79.2969 439.475 77.7031C440.6 76.1094 441.413 74.2656 441.913 72.1719C442.444 70.0469 442.709 67.8125 442.709 65.4688ZM462.866 41.9375H470.131L470.459 49.5312C471.834 47.9062 473.163 46.5625 474.444 45.5C475.725 44.4062 476.975 43.5312 478.194 42.875C479.444 42.2188 480.709 41.7656 481.991 41.5156C483.272 41.2344 484.6 41.0938 485.975 41.0938C490.819 41.0938 494.475 42.5312 496.944 45.4062C499.444 48.25 500.694 52.5469 500.694 58.2969V89H492.538V58.9531C492.538 55.2656 491.85 52.5469 490.475 50.7969C489.1 49.0156 487.053 48.125 484.334 48.125C483.334 48.125 482.35 48.2812 481.381 48.5938C480.444 48.875 479.459 49.3906 478.428 50.1406C477.397 50.8594 476.272 51.8438 475.053 53.0938C473.866 54.3438 472.522 55.9062 471.022 57.7812V89H462.866V41.9375ZM549.538 48.5938C550.413 49.6875 551.084 50.9688 551.553 52.4375C552.053 53.875 552.303 55.4375 552.303 57.125C552.303 59.5625 551.85 61.7969 550.944 63.8281C550.069 65.8281 548.819 67.5469 547.194 68.9844C545.569 70.4219 543.616 71.5469 541.334 72.3594C539.084 73.1406 536.6 73.5312 533.881 73.5312C531.913 73.5312 530.069 73.3281 528.35 72.9219C526.631 72.4844 525.272 71.9531 524.272 71.3281C523.678 72.2031 523.178 73.0312 522.772 73.8125C522.366 74.5938 522.163 75.4688 522.163 76.4375C522.163 77.625 522.725 78.6094 523.85 79.3906C525.006 80.1719 526.522 80.5938 528.397 80.6562L540.772 81.125C543.116 81.1875 545.272 81.4844 547.241 82.0156C549.241 82.5469 550.944 83.3125 552.35 84.3125C553.788 85.3125 554.897 86.5469 555.678 88.0156C556.491 89.4844 556.897 91.1875 556.897 93.125C556.897 95.2188 556.444 97.2031 555.538 99.0781C554.631 100.953 553.225 102.594 551.319 104C549.444 105.438 547.053 106.578 544.147 107.422C541.241 108.266 537.788 108.688 533.788 108.688C529.975 108.688 526.725 108.375 524.038 107.75C521.381 107.156 519.194 106.312 517.475 105.219C515.756 104.156 514.506 102.875 513.725 101.375C512.944 99.9062 512.553 98.2812 512.553 96.5C512.553 94.2188 513.084 92.2188 514.147 90.5C515.209 88.7812 516.85 87.125 519.069 85.5312C518.256 85.1562 517.553 84.6875 516.959 84.125C516.366 83.5625 515.881 82.9531 515.506 82.2969C515.131 81.6094 514.85 80.8906 514.663 80.1406C514.475 79.3906 514.381 78.6562 514.381 77.9375C514.381 75.9062 514.85 74.0469 515.788 72.3594C516.756 70.6719 517.897 69.0781 519.209 67.5781C518.616 66.8594 518.084 66.1562 517.616 65.4688C517.178 64.7812 516.788 64.0469 516.444 63.2656C516.131 62.4531 515.881 61.5938 515.694 60.6875C515.538 59.75 515.459 58.6875 515.459 57.5C515.459 55.0625 515.897 52.8438 516.772 50.8438C517.678 48.8125 518.928 47.0781 520.522 45.6406C522.147 44.2031 524.084 43.0938 526.334 42.3125C528.616 41.5 531.131 41.0938 533.881 41.0938C535.038 41.0938 536.147 41.1719 537.209 41.3281C538.272 41.4844 539.209 41.6875 540.022 41.9375H557.084V48.5938H549.538ZM521.225 95.7969C521.225 98.0156 522.381 99.625 524.694 100.625C527.006 101.656 530.225 102.172 534.35 102.172C536.944 102.172 539.116 101.938 540.866 101.469C542.647 101 544.069 100.375 545.131 99.5938C546.225 98.8438 547.006 97.9688 547.475 96.9688C547.944 96 548.178 95 548.178 93.9688C548.178 92.0625 547.397 90.6562 545.834 89.75C544.272 88.8438 541.881 88.3125 538.663 88.1562L526.381 87.7344C525.35 88.4219 524.491 89.0938 523.803 89.75C523.147 90.4062 522.631 91.0625 522.256 91.7188C521.881 92.4062 521.616 93.0781 521.459 93.7344C521.303 94.4219 521.225 95.1094 521.225 95.7969ZM523.709 57.3125C523.709 58.8125 523.959 60.1875 524.459 61.4375C524.959 62.6875 525.663 63.75 526.569 64.625C527.475 65.5 528.538 66.1875 529.756 66.6875C531.006 67.1562 532.381 67.3906 533.881 67.3906C535.506 67.3906 536.944 67.125 538.194 66.5938C539.475 66.0312 540.538 65.2812 541.381 64.3438C542.256 63.4062 542.913 62.3281 543.35 61.1094C543.819 59.8906 544.053 58.625 544.053 57.3125C544.053 55.8125 543.803 54.4375 543.303 53.1875C542.803 51.9375 542.1 50.875 541.194 50C540.288 49.125 539.209 48.4531 537.959 47.9844C536.741 47.4844 535.381 47.2344 533.881 47.2344C532.256 47.2344 530.803 47.5156 529.522 48.0781C528.272 48.6406 527.209 49.3906 526.334 50.3281C525.491 51.2344 524.834 52.2969 524.366 53.5156C523.928 54.7344 523.709 56 523.709 57.3125ZM609.397 65.0938C609.397 68.75 608.881 72.1094 607.85 75.1719C606.819 78.2031 605.334 80.8125 603.397 83C601.459 85.1562 599.1 86.8438 596.319 88.0625C593.538 89.25 590.381 89.8438 586.85 89.8438C583.475 89.8438 580.444 89.3281 577.756 88.2969C575.1 87.2344 572.834 85.6875 570.959 83.6562C569.116 81.625 567.694 79.1094 566.694 76.1094C565.725 73.1094 565.241 69.6562 565.241 65.75C565.241 62.0938 565.756 58.7656 566.788 55.7656C567.819 52.7344 569.303 50.1406 571.241 47.9844C573.178 45.7969 575.538 44.1094 578.319 42.9219C581.1 41.7031 584.256 41.0938 587.788 41.0938C591.163 41.0938 594.178 41.625 596.834 42.6875C599.522 43.7188 601.788 45.25 603.631 47.2812C605.506 49.2812 606.928 51.7812 607.897 54.7812C608.897 57.7812 609.397 61.2188 609.397 65.0938ZM601.053 65.4688C601.053 62.5625 600.725 60.0312 600.069 57.875C599.444 55.6875 598.538 53.875 597.35 52.4375C596.163 50.9688 594.709 49.875 592.991 49.1562C591.303 48.4062 589.413 48.0312 587.319 48.0312C584.881 48.0312 582.788 48.5156 581.038 49.4844C579.319 50.4219 577.897 51.6875 576.772 53.2812C575.678 54.875 574.866 56.7344 574.334 58.8594C573.834 60.9531 573.584 63.1562 573.584 65.4688C573.584 68.375 573.897 70.9219 574.522 73.1094C575.178 75.2969 576.1 77.125 577.288 78.5938C578.475 80.0312 579.913 81.125 581.6 81.875C583.288 82.5938 585.194 82.9531 587.319 82.9531C589.756 82.9531 591.834 82.4844 593.553 81.5469C595.303 80.5781 596.725 79.2969 597.819 77.7031C598.944 76.1094 599.756 74.2656 600.256 72.1719C600.788 70.0469 601.053 67.8125 601.053 65.4688ZM618.819 66.4531C618.819 62.4531 619.366 58.9062 620.459 55.8125C621.553 52.6875 623.1 50.0625 625.1 47.9375C627.131 45.7812 629.553 44.1562 632.366 43.0625C635.209 41.9375 638.366 41.375 641.834 41.375C643.334 41.375 644.803 41.4688 646.241 41.6562C647.709 41.8438 649.147 42.1406 650.553 42.5469V22.7656H658.756V89H651.444L651.163 80.0938C648.881 83.4062 646.413 85.8594 643.756 87.4531C641.1 89.0469 638.225 89.8438 635.131 89.8438C632.444 89.8438 630.069 89.2812 628.006 88.1562C625.975 87.0312 624.272 85.4531 622.897 83.4219C621.553 81.3594 620.538 78.8906 619.85 76.0156C619.163 73.1406 618.819 69.9531 618.819 66.4531ZM627.163 65.9375C627.163 71.625 627.991 75.875 629.647 78.6875C631.334 81.4688 633.709 82.8594 636.772 82.8594C638.834 82.8594 641.006 81.9375 643.288 80.0938C645.6 78.25 648.022 75.5156 650.553 71.8906V50.0469C649.209 49.4219 647.725 48.9531 646.1 48.6406C644.475 48.2969 642.866 48.125 641.272 48.125C636.834 48.125 633.366 49.5625 630.866 52.4375C628.397 55.3125 627.163 59.8125 627.163 65.9375ZM690.022 48.6875H676.1V41.9375H698.272V82.2031H712.288V89H674.553V82.2031H690.022V48.6875ZM692.881 22.2031C693.788 22.2031 694.631 22.375 695.413 22.7188C696.194 23.0313 696.866 23.4844 697.428 24.0781C698.022 24.6719 698.475 25.3594 698.788 26.1406C699.131 26.8906 699.303 27.7188 699.303 28.625C699.303 29.5 699.131 30.3281 698.788 31.1094C698.475 31.8906 698.022 32.5781 697.428 33.1719C696.866 33.7656 696.194 34.2344 695.413 34.5781C694.631 34.8906 693.788 35.0469 692.881 35.0469C691.975 35.0469 691.131 34.8906 690.35 34.5781C689.569 34.2344 688.881 33.7656 688.288 33.1719C687.725 32.5781 687.272 31.8906 686.928 31.1094C686.616 30.3281 686.459 29.5 686.459 28.625C686.459 27.7188 686.616 26.8906 686.928 26.1406C687.272 25.3594 687.725 24.6719 688.288 24.0781C688.881 23.4844 689.569 23.0313 690.35 22.7188C691.131 22.375 691.975 22.2031 692.881 22.2031ZM726.772 41.9375H734.038L734.366 49.5312C735.741 47.9062 737.069 46.5625 738.35 45.5C739.631 44.4062 740.881 43.5312 742.1 42.875C743.35 42.2188 744.616 41.7656 745.897 41.5156C747.178 41.2344 748.506 41.0938 749.881 41.0938C754.725 41.0938 758.381 42.5312 760.85 45.4062C763.35 48.25 764.6 52.5469 764.6 58.2969V89H756.444V58.9531C756.444 55.2656 755.756 52.5469 754.381 50.7969C753.006 49.0156 750.959 48.125 748.241 48.125C747.241 48.125 746.256 48.2812 745.288 48.5938C744.35 48.875 743.366 49.3906 742.334 50.1406C741.303 50.8594 740.178 51.8438 738.959 53.0938C737.772 54.3438 736.428 55.9062 734.928 57.7812V89H726.772V41.9375ZM813.444 48.5938C814.319 49.6875 814.991 50.9688 815.459 52.4375C815.959 53.875 816.209 55.4375 816.209 57.125C816.209 59.5625 815.756 61.7969 814.85 63.8281C813.975 65.8281 812.725 67.5469 811.1 68.9844C809.475 70.4219 807.522 71.5469 805.241 72.3594C802.991 73.1406 800.506 73.5312 797.788 73.5312C795.819 73.5312 793.975 73.3281 792.256 72.9219C790.538 72.4844 789.178 71.9531 788.178 71.3281C787.584 72.2031 787.084 73.0312 786.678 73.8125C786.272 74.5938 786.069 75.4688 786.069 76.4375C786.069 77.625 786.631 78.6094 787.756 79.3906C788.913 80.1719 790.428 80.5938 792.303 80.6562L804.678 81.125C807.022 81.1875 809.178 81.4844 811.147 82.0156C813.147 82.5469 814.85 83.3125 816.256 84.3125C817.694 85.3125 818.803 86.5469 819.584 88.0156C820.397 89.4844 820.803 91.1875 820.803 93.125C820.803 95.2188 820.35 97.2031 819.444 99.0781C818.538 100.953 817.131 102.594 815.225 104C813.35 105.438 810.959 106.578 808.053 107.422C805.147 108.266 801.694 108.688 797.694 108.688C793.881 108.688 790.631 108.375 787.944 107.75C785.288 107.156 783.1 106.312 781.381 105.219C779.663 104.156 778.413 102.875 777.631 101.375C776.85 99.9062 776.459 98.2812 776.459 96.5C776.459 94.2188 776.991 92.2188 778.053 90.5C779.116 88.7812 780.756 87.125 782.975 85.5312C782.163 85.1562 781.459 84.6875 780.866 84.125C780.272 83.5625 779.788 82.9531 779.413 82.2969C779.038 81.6094 778.756 80.8906 778.569 80.1406C778.381 79.3906 778.288 78.6562 778.288 77.9375C778.288 75.9062 778.756 74.0469 779.694 72.3594C780.663 70.6719 781.803 69.0781 783.116 67.5781C782.522 66.8594 781.991 66.1562 781.522 65.4688C781.084 64.7812 780.694 64.0469 780.35 63.2656C780.038 62.4531 779.788 61.5938 779.6 60.6875C779.444 59.75 779.366 58.6875 779.366 57.5C779.366 55.0625 779.803 52.8438 780.678 50.8438C781.584 48.8125 782.834 47.0781 784.428 45.6406C786.053 44.2031 787.991 43.0938 790.241 42.3125C792.522 41.5 795.038 41.0938 797.788 41.0938C798.944 41.0938 800.053 41.1719 801.116 41.3281C802.178 41.4844 803.116 41.6875 803.928 41.9375H820.991V48.5938H813.444ZM785.131 95.7969C785.131 98.0156 786.288 99.625 788.6 100.625C790.913 101.656 794.131 102.172 798.256 102.172C800.85 102.172 803.022 101.938 804.772 101.469C806.553 101 807.975 100.375 809.038 99.5938C810.131 98.8438 810.913 97.9688 811.381 96.9688C811.85 96 812.084 95 812.084 93.9688C812.084 92.0625 811.303 90.6562 809.741 89.75C808.178 88.8438 805.788 88.3125 802.569 88.1562L790.288 87.7344C789.256 88.4219 788.397 89.0938 787.709 89.75C787.053 90.4062 786.538 91.0625 786.163 91.7188C785.788 92.4062 785.522 93.0781 785.366 93.7344C785.209 94.4219 785.131 95.1094 785.131 95.7969ZM787.616 57.3125C787.616 58.8125 787.866 60.1875 788.366 61.4375C788.866 62.6875 789.569 63.75 790.475 64.625C791.381 65.5 792.444 66.1875 793.663 66.6875C794.913 67.1562 796.288 67.3906 797.788 67.3906C799.413 67.3906 800.85 67.125 802.1 66.5938C803.381 66.0312 804.444 65.2812 805.288 64.3438C806.163 63.4062 806.819 62.3281 807.256 61.1094C807.725 59.8906 807.959 58.625 807.959 57.3125C807.959 55.8125 807.709 54.4375 807.209 53.1875C806.709 51.9375 806.006 50.875 805.1 50C804.194 49.125 803.116 48.4531 801.866 47.9844C800.647 47.4844 799.288 47.2344 797.788 47.2344C796.163 47.2344 794.709 47.5156 793.428 48.0781C792.178 48.6406 791.116 49.3906 790.241 50.3281C789.397 51.2344 788.741 52.2969 788.272 53.5156C787.834 54.7344 787.616 56 787.616 57.3125ZM889.344 22.7656L857.188 99.0781H849.406L881.562 22.7656H889.344ZM896.994 42.3594L902.056 37.1562L933.556 63.4531L902.056 89.75L896.994 84.5938L922.541 63.5469L896.994 42.3594Z" fill="#010D5B"/>
<path d="M321.348 142V124.545H327.246C328.615 124.545 329.734 124.793 330.604 125.287C331.479 125.776 332.126 126.438 332.547 127.273C332.967 128.108 333.178 129.04 333.178 130.068C333.178 131.097 332.967 132.031 332.547 132.872C332.132 133.713 331.49 134.384 330.621 134.884C329.751 135.378 328.638 135.625 327.28 135.625H323.053V133.75H327.212C328.149 133.75 328.902 133.588 329.47 133.264C330.038 132.94 330.45 132.503 330.706 131.952C330.967 131.395 331.098 130.767 331.098 130.068C331.098 129.369 330.967 128.744 330.706 128.193C330.45 127.642 330.036 127.21 329.462 126.898C328.888 126.58 328.126 126.42 327.178 126.42H323.462V142H321.348ZM336.31 142V128.909H338.253V130.886H338.389C338.628 130.239 339.06 129.713 339.685 129.31C340.31 128.906 341.014 128.705 341.798 128.705C341.946 128.705 342.131 128.707 342.352 128.713C342.574 128.719 342.741 128.727 342.855 128.739V130.784C342.787 130.767 342.631 130.741 342.386 130.707C342.148 130.668 341.895 130.648 341.628 130.648C340.991 130.648 340.423 130.781 339.923 131.048C339.429 131.31 339.037 131.673 338.747 132.139C338.463 132.599 338.321 133.125 338.321 133.716V142H336.31ZM350.159 142.273C348.977 142.273 347.94 141.991 347.048 141.429C346.162 140.866 345.469 140.08 344.969 139.068C344.474 138.057 344.227 136.875 344.227 135.523C344.227 134.159 344.474 132.969 344.969 131.952C345.469 130.935 346.162 130.145 347.048 129.582C347.94 129.02 348.977 128.739 350.159 128.739C351.341 128.739 352.375 129.02 353.261 129.582C354.153 130.145 354.847 130.935 355.341 131.952C355.841 132.969 356.091 134.159 356.091 135.523C356.091 136.875 355.841 138.057 355.341 139.068C354.847 140.08 354.153 140.866 353.261 141.429C352.375 141.991 351.341 142.273 350.159 142.273ZM350.159 140.466C351.057 140.466 351.795 140.236 352.375 139.776C352.955 139.315 353.384 138.71 353.662 137.96C353.94 137.21 354.08 136.398 354.08 135.523C354.08 134.648 353.94 133.832 353.662 133.077C353.384 132.321 352.955 131.71 352.375 131.244C351.795 130.778 351.057 130.545 350.159 130.545C349.261 130.545 348.523 130.778 347.943 131.244C347.364 131.71 346.935 132.321 346.656 133.077C346.378 133.832 346.239 134.648 346.239 135.523C346.239 136.398 346.378 137.21 346.656 137.96C346.935 138.71 347.364 139.315 347.943 139.776C348.523 140.236 349.261 140.466 350.159 140.466ZM364.991 128.909V130.614H357.934V128.909H364.991ZM360.048 142V127.102C360.048 126.352 360.224 125.727 360.576 125.227C360.928 124.727 361.386 124.352 361.948 124.102C362.511 123.852 363.104 123.727 363.729 123.727C364.224 123.727 364.627 123.767 364.94 123.847C365.252 123.926 365.485 124 365.638 124.068L365.059 125.807C364.957 125.773 364.815 125.73 364.633 125.679C364.457 125.628 364.224 125.602 363.934 125.602C363.269 125.602 362.789 125.77 362.494 126.105C362.204 126.44 362.059 126.932 362.059 127.58V142H360.048ZM372.759 142.273C371.498 142.273 370.41 141.994 369.495 141.438C368.586 140.875 367.884 140.091 367.39 139.085C366.901 138.074 366.657 136.898 366.657 135.557C366.657 134.216 366.901 133.034 367.39 132.011C367.884 130.983 368.572 130.182 369.452 129.608C370.339 129.028 371.373 128.739 372.555 128.739C373.237 128.739 373.91 128.852 374.575 129.08C375.239 129.307 375.844 129.676 376.39 130.188C376.935 130.693 377.37 131.364 377.694 132.199C378.018 133.034 378.18 134.062 378.18 135.284V136.136H368.089V134.398H376.134C376.134 133.659 375.987 133 375.691 132.42C375.401 131.841 374.987 131.384 374.447 131.048C373.913 130.713 373.282 130.545 372.555 130.545C371.754 130.545 371.06 130.744 370.475 131.142C369.896 131.534 369.45 132.045 369.137 132.676C368.825 133.307 368.668 133.983 368.668 134.705V135.864C368.668 136.852 368.839 137.69 369.18 138.378C369.526 139.06 370.006 139.58 370.62 139.938C371.234 140.29 371.947 140.466 372.759 140.466C373.288 140.466 373.765 140.392 374.191 140.244C374.623 140.091 374.995 139.864 375.308 139.562C375.62 139.256 375.862 138.875 376.032 138.42L377.975 138.966C377.771 139.625 377.427 140.205 376.944 140.705C376.461 141.199 375.864 141.585 375.154 141.864C374.444 142.136 373.646 142.273 372.759 142.273ZM390.512 131.841L388.705 132.352C388.592 132.051 388.424 131.759 388.202 131.474C387.987 131.185 387.691 130.946 387.316 130.759C386.941 130.571 386.461 130.477 385.876 130.477C385.075 130.477 384.407 130.662 383.873 131.031C383.344 131.395 383.08 131.858 383.08 132.42C383.08 132.92 383.262 133.315 383.626 133.605C383.989 133.895 384.558 134.136 385.33 134.33L387.273 134.807C388.444 135.091 389.316 135.526 389.89 136.111C390.464 136.69 390.751 137.437 390.751 138.352C390.751 139.102 390.535 139.773 390.103 140.364C389.677 140.955 389.08 141.42 388.313 141.761C387.546 142.102 386.654 142.273 385.637 142.273C384.302 142.273 383.197 141.983 382.322 141.403C381.447 140.824 380.893 139.977 380.66 138.864L382.569 138.386C382.751 139.091 383.094 139.619 383.6 139.972C384.112 140.324 384.779 140.5 385.603 140.5C386.54 140.5 387.285 140.301 387.836 139.903C388.393 139.5 388.671 139.017 388.671 138.455C388.671 138 388.512 137.619 388.194 137.312C387.876 137 387.387 136.767 386.728 136.614L384.546 136.102C383.347 135.818 382.467 135.378 381.904 134.781C381.347 134.179 381.069 133.426 381.069 132.523C381.069 131.784 381.276 131.131 381.691 130.562C382.112 129.994 382.683 129.548 383.404 129.224C384.131 128.901 384.955 128.739 385.876 128.739C387.171 128.739 388.188 129.023 388.927 129.591C389.671 130.159 390.2 130.909 390.512 131.841ZM403.051 131.841L401.244 132.352C401.131 132.051 400.963 131.759 400.741 131.474C400.526 131.185 400.23 130.946 399.855 130.759C399.48 130.571 399 130.477 398.415 130.477C397.614 130.477 396.946 130.662 396.412 131.031C395.884 131.395 395.619 131.858 395.619 132.42C395.619 132.92 395.801 133.315 396.165 133.605C396.528 133.895 397.097 134.136 397.869 134.33L399.812 134.807C400.983 135.091 401.855 135.526 402.429 136.111C403.003 136.69 403.29 137.437 403.29 138.352C403.29 139.102 403.074 139.773 402.642 140.364C402.216 140.955 401.619 141.42 400.852 141.761C400.085 142.102 399.193 142.273 398.176 142.273C396.841 142.273 395.736 141.983 394.861 141.403C393.986 140.824 393.432 139.977 393.199 138.864L395.108 138.386C395.29 139.091 395.634 139.619 396.139 139.972C396.651 140.324 397.318 140.5 398.142 140.5C399.08 140.5 399.824 140.301 400.375 139.903C400.932 139.5 401.21 139.017 401.21 138.455C401.21 138 401.051 137.619 400.733 137.312C400.415 137 399.926 136.767 399.267 136.614L397.085 136.102C395.886 135.818 395.006 135.378 394.443 134.781C393.886 134.179 393.608 133.426 393.608 132.523C393.608 131.784 393.815 131.131 394.23 130.562C394.651 129.994 395.222 129.548 395.943 129.224C396.67 128.901 397.494 128.739 398.415 128.739C399.71 128.739 400.727 129.023 401.466 129.591C402.21 130.159 402.739 130.909 403.051 131.841ZM406.317 142V128.909H408.329V142H406.317ZM407.34 126.727C406.948 126.727 406.61 126.594 406.326 126.327C406.048 126.06 405.908 125.739 405.908 125.364C405.908 124.989 406.048 124.668 406.326 124.401C406.61 124.134 406.948 124 407.34 124C407.732 124 408.067 124.134 408.346 124.401C408.63 124.668 408.772 124.989 408.772 125.364C408.772 125.739 408.63 126.06 408.346 126.327C408.067 126.594 407.732 126.727 407.34 126.727ZM417.331 142.273C416.149 142.273 415.112 141.991 414.22 141.429C413.334 140.866 412.641 140.08 412.141 139.068C411.646 138.057 411.399 136.875 411.399 135.523C411.399 134.159 411.646 132.969 412.141 131.952C412.641 130.935 413.334 130.145 414.22 129.582C415.112 129.02 416.149 128.739 417.331 128.739C418.513 128.739 419.547 129.02 420.433 129.582C421.325 130.145 422.018 130.935 422.513 131.952C423.013 132.969 423.263 134.159 423.263 135.523C423.263 136.875 423.013 138.057 422.513 139.068C422.018 140.08 421.325 140.866 420.433 141.429C419.547 141.991 418.513 142.273 417.331 142.273ZM417.331 140.466C418.229 140.466 418.967 140.236 419.547 139.776C420.126 139.315 420.555 138.71 420.834 137.96C421.112 137.21 421.251 136.398 421.251 135.523C421.251 134.648 421.112 133.832 420.834 133.077C420.555 132.321 420.126 131.71 419.547 131.244C418.967 130.778 418.229 130.545 417.331 130.545C416.433 130.545 415.695 130.778 415.115 131.244C414.536 131.71 414.107 132.321 413.828 133.077C413.55 133.832 413.411 134.648 413.411 135.523C413.411 136.398 413.55 137.21 413.828 137.96C414.107 138.71 414.536 139.315 415.115 139.776C415.695 140.236 416.433 140.466 417.331 140.466ZM428.344 134.125V142H426.333V128.909H428.276V130.955H428.447C428.754 130.29 429.219 129.756 429.844 129.352C430.469 128.943 431.276 128.739 432.265 128.739C433.151 128.739 433.927 128.92 434.592 129.284C435.256 129.642 435.773 130.188 436.143 130.92C436.512 131.648 436.697 132.568 436.697 133.682V142H434.685V133.818C434.685 132.79 434.418 131.989 433.884 131.415C433.35 130.835 432.617 130.545 431.685 130.545C431.043 130.545 430.469 130.685 429.964 130.963C429.464 131.241 429.069 131.648 428.779 132.182C428.489 132.716 428.344 133.364 428.344 134.125ZM444.224 142.307C443.395 142.307 442.642 142.151 441.966 141.838C441.29 141.52 440.753 141.062 440.355 140.466C439.957 139.864 439.759 139.136 439.759 138.284C439.759 137.534 439.906 136.926 440.202 136.46C440.497 135.989 440.892 135.619 441.386 135.352C441.881 135.085 442.426 134.886 443.023 134.756C443.625 134.619 444.23 134.511 444.838 134.432C445.634 134.33 446.278 134.253 446.773 134.202C447.273 134.145 447.636 134.051 447.864 133.92C448.097 133.79 448.213 133.562 448.213 133.239V133.17C448.213 132.33 447.983 131.676 447.523 131.21C447.068 130.744 446.378 130.511 445.452 130.511C444.491 130.511 443.739 130.722 443.193 131.142C442.648 131.562 442.264 132.011 442.043 132.489L440.134 131.807C440.474 131.011 440.929 130.392 441.497 129.949C442.071 129.5 442.696 129.187 443.372 129.011C444.054 128.83 444.724 128.739 445.384 128.739C445.804 128.739 446.287 128.79 446.832 128.892C447.384 128.989 447.915 129.19 448.426 129.497C448.943 129.804 449.372 130.267 449.713 130.886C450.054 131.506 450.224 132.335 450.224 133.375V142H448.213V140.227H448.111C447.974 140.511 447.747 140.815 447.429 141.139C447.111 141.463 446.688 141.739 446.159 141.966C445.631 142.193 444.986 142.307 444.224 142.307ZM444.531 140.5C445.327 140.5 445.997 140.344 446.543 140.031C447.094 139.719 447.509 139.315 447.787 138.821C448.071 138.327 448.213 137.807 448.213 137.261V135.42C448.128 135.523 447.94 135.616 447.651 135.702C447.366 135.781 447.037 135.852 446.662 135.915C446.293 135.972 445.932 136.023 445.58 136.068C445.233 136.108 444.952 136.142 444.736 136.17C444.213 136.239 443.724 136.349 443.27 136.503C442.821 136.651 442.457 136.875 442.179 137.176C441.906 137.472 441.77 137.875 441.77 138.386C441.77 139.085 442.028 139.614 442.545 139.972C443.068 140.324 443.73 140.5 444.531 140.5ZM455.907 124.545V142H453.896V124.545H455.907ZM469.784 142L465.011 124.545H467.159L470.807 138.761H470.977L474.693 124.545H477.08L480.795 138.761H480.966L484.614 124.545H486.761L481.989 142H479.807L475.955 128.091H475.818L471.966 142H469.784ZM493.392 142.273C492.131 142.273 491.043 141.994 490.128 141.438C489.219 140.875 488.517 140.091 488.023 139.085C487.534 138.074 487.29 136.898 487.29 135.557C487.29 134.216 487.534 133.034 488.023 132.011C488.517 130.983 489.205 130.182 490.085 129.608C490.972 129.028 492.006 128.739 493.188 128.739C493.869 128.739 494.543 128.852 495.207 129.08C495.872 129.307 496.477 129.676 497.023 130.188C497.568 130.693 498.003 131.364 498.327 132.199C498.651 133.034 498.812 134.062 498.812 135.284V136.136H488.722V134.398H496.767C496.767 133.659 496.619 133 496.324 132.42C496.034 131.841 495.619 131.384 495.08 131.048C494.545 130.713 493.915 130.545 493.188 130.545C492.386 130.545 491.693 130.744 491.108 131.142C490.528 131.534 490.082 132.045 489.77 132.676C489.457 133.307 489.301 133.983 489.301 134.705V135.864C489.301 136.852 489.472 137.69 489.812 138.378C490.159 139.06 490.639 139.58 491.253 139.938C491.866 140.29 492.58 140.466 493.392 140.466C493.92 140.466 494.398 140.392 494.824 140.244C495.256 140.091 495.628 139.864 495.94 139.562C496.253 139.256 496.494 138.875 496.665 138.42L498.608 138.966C498.403 139.625 498.06 140.205 497.577 140.705C497.094 141.199 496.497 141.585 495.787 141.864C495.077 142.136 494.278 142.273 493.392 142.273ZM502.145 142V124.545H504.156V130.989H504.327C504.474 130.761 504.679 130.472 504.94 130.119C505.207 129.761 505.588 129.443 506.082 129.165C506.582 128.881 507.259 128.739 508.111 128.739C509.213 128.739 510.185 129.014 511.026 129.565C511.866 130.116 512.523 130.898 512.994 131.909C513.466 132.92 513.702 134.114 513.702 135.489C513.702 136.875 513.466 138.077 512.994 139.094C512.523 140.105 511.869 140.889 511.034 141.446C510.199 141.997 509.236 142.273 508.145 142.273C507.304 142.273 506.631 142.134 506.125 141.855C505.619 141.571 505.23 141.25 504.957 140.892C504.685 140.528 504.474 140.227 504.327 139.989H504.088V142H502.145ZM504.122 135.455C504.122 136.443 504.267 137.315 504.557 138.071C504.847 138.821 505.27 139.409 505.827 139.835C506.384 140.256 507.065 140.466 507.872 140.466C508.713 140.466 509.415 140.244 509.977 139.801C510.545 139.352 510.972 138.75 511.256 137.994C511.545 137.233 511.69 136.386 511.69 135.455C511.69 134.534 511.548 133.705 511.264 132.966C510.986 132.222 510.563 131.634 509.994 131.202C509.432 130.764 508.724 130.545 507.872 130.545C507.054 130.545 506.366 130.753 505.81 131.168C505.253 131.577 504.832 132.151 504.548 132.889C504.264 133.622 504.122 134.477 504.122 135.455ZM526.051 131.841L524.244 132.352C524.131 132.051 523.963 131.759 523.741 131.474C523.526 131.185 523.23 130.946 522.855 130.759C522.48 130.571 522 130.477 521.415 130.477C520.614 130.477 519.946 130.662 519.412 131.031C518.884 131.395 518.619 131.858 518.619 132.42C518.619 132.92 518.801 133.315 519.165 133.605C519.528 133.895 520.097 134.136 520.869 134.33L522.812 134.807C523.983 135.091 524.855 135.526 525.429 136.111C526.003 136.69 526.29 137.437 526.29 138.352C526.29 139.102 526.074 139.773 525.642 140.364C525.216 140.955 524.619 141.42 523.852 141.761C523.085 142.102 522.193 142.273 521.176 142.273C519.841 142.273 518.736 141.983 517.861 141.403C516.986 140.824 516.432 139.977 516.199 138.864L518.108 138.386C518.29 139.091 518.634 139.619 519.139 139.972C519.651 140.324 520.318 140.5 521.142 140.5C522.08 140.5 522.824 140.301 523.375 139.903C523.932 139.5 524.21 139.017 524.21 138.455C524.21 138 524.051 137.619 523.733 137.312C523.415 137 522.926 136.767 522.267 136.614L520.085 136.102C518.886 135.818 518.006 135.378 517.443 134.781C516.886 134.179 516.608 133.426 516.608 132.523C516.608 131.784 516.815 131.131 517.23 130.562C517.651 129.994 518.222 129.548 518.943 129.224C519.67 128.901 520.494 128.739 521.415 128.739C522.71 128.739 523.727 129.023 524.466 129.591C525.21 130.159 525.739 130.909 526.051 131.841ZM529.317 142V128.909H531.329V142H529.317ZM530.34 126.727C529.948 126.727 529.61 126.594 529.326 126.327C529.048 126.06 528.908 125.739 528.908 125.364C528.908 124.989 529.048 124.668 529.326 124.401C529.61 124.134 529.948 124 530.34 124C530.732 124 531.067 124.134 531.346 124.401C531.63 124.668 531.772 124.989 531.772 125.364C531.772 125.739 531.63 126.06 531.346 126.327C531.067 126.594 530.732 126.727 530.34 126.727ZM540.706 128.909V130.614H533.922V128.909H540.706ZM535.899 125.773H537.911V138.25C537.911 138.818 537.993 139.244 538.158 139.528C538.328 139.807 538.544 139.994 538.805 140.091C539.072 140.182 539.354 140.227 539.649 140.227C539.871 140.227 540.053 140.216 540.195 140.193C540.337 140.165 540.45 140.142 540.536 140.125L540.945 141.932C540.808 141.983 540.618 142.034 540.374 142.085C540.129 142.142 539.82 142.17 539.445 142.17C538.876 142.17 538.32 142.048 537.774 141.804C537.234 141.56 536.786 141.188 536.428 140.688C536.075 140.188 535.899 139.557 535.899 138.795V125.773ZM549.08 142.273C547.818 142.273 546.73 141.994 545.815 141.438C544.906 140.875 544.205 140.091 543.71 139.085C543.222 138.074 542.977 136.898 542.977 135.557C542.977 134.216 543.222 133.034 543.71 132.011C544.205 130.983 544.892 130.182 545.773 129.608C546.659 129.028 547.693 128.739 548.875 128.739C549.557 128.739 550.23 128.852 550.895 129.08C551.56 129.307 552.165 129.676 552.71 130.188C553.256 130.693 553.69 131.364 554.014 132.199C554.338 133.034 554.5 134.062 554.5 135.284V136.136H544.409V134.398H552.455C552.455 133.659 552.307 133 552.011 132.42C551.722 131.841 551.307 131.384 550.767 131.048C550.233 130.713 549.602 130.545 548.875 130.545C548.074 130.545 547.381 130.744 546.795 131.142C546.216 131.534 545.77 132.045 545.457 132.676C545.145 133.307 544.989 133.983 544.989 134.705V135.864C544.989 136.852 545.159 137.69 545.5 138.378C545.847 139.06 546.327 139.58 546.94 139.938C547.554 140.29 548.267 140.466 549.08 140.466C549.608 140.466 550.085 140.392 550.511 140.244C550.943 140.091 551.315 139.864 551.628 139.562C551.94 139.256 552.182 138.875 552.352 138.42L554.295 138.966C554.091 139.625 553.747 140.205 553.264 140.705C552.781 141.199 552.185 141.585 551.474 141.864C550.764 142.136 549.966 142.273 549.08 142.273ZM560.56 139.614L560.423 140.534C560.327 141.182 560.179 141.875 559.98 142.614C559.787 143.352 559.585 144.048 559.375 144.702C559.165 145.355 558.991 145.875 558.855 146.261H557.321C557.395 145.898 557.491 145.418 557.611 144.821C557.73 144.224 557.849 143.557 557.969 142.818C558.094 142.085 558.196 141.335 558.276 140.568L558.378 139.614H560.56ZM571.309 124.545H573.832L579.763 139.034H579.968L585.9 124.545H588.423V142H586.445V128.739H586.275L580.82 142H578.911L573.457 128.739H573.286V142H571.309V124.545ZM597.706 142.273C596.524 142.273 595.487 141.991 594.595 141.429C593.709 140.866 593.016 140.08 592.516 139.068C592.021 138.057 591.774 136.875 591.774 135.523C591.774 134.159 592.021 132.969 592.516 131.952C593.016 130.935 593.709 130.145 594.595 129.582C595.487 129.02 596.524 128.739 597.706 128.739C598.888 128.739 599.922 129.02 600.808 129.582C601.7 130.145 602.393 130.935 602.888 131.952C603.388 132.969 603.638 134.159 603.638 135.523C603.638 136.875 603.388 138.057 602.888 139.068C602.393 140.08 601.7 140.866 600.808 141.429C599.922 141.991 598.888 142.273 597.706 142.273ZM597.706 140.466C598.604 140.466 599.342 140.236 599.922 139.776C600.501 139.315 600.93 138.71 601.209 137.96C601.487 137.21 601.626 136.398 601.626 135.523C601.626 134.648 601.487 133.832 601.209 133.077C600.93 132.321 600.501 131.71 599.922 131.244C599.342 130.778 598.604 130.545 597.706 130.545C596.808 130.545 596.07 130.778 595.49 131.244C594.911 131.71 594.482 132.321 594.203 133.077C593.925 133.832 593.786 134.648 593.786 135.523C593.786 136.398 593.925 137.21 594.203 137.96C594.482 138.71 594.911 139.315 595.49 139.776C596.07 140.236 596.808 140.466 597.706 140.466ZM606.981 142V124.545H608.992V130.989H609.163C609.31 130.761 609.515 130.472 609.776 130.119C610.043 129.761 610.424 129.443 610.918 129.165C611.418 128.881 612.094 128.739 612.947 128.739C614.049 128.739 615.021 129.014 615.862 129.565C616.702 130.116 617.359 130.898 617.83 131.909C618.302 132.92 618.538 134.114 618.538 135.489C618.538 136.875 618.302 138.077 617.83 139.094C617.359 140.105 616.705 140.889 615.87 141.446C615.035 141.997 614.072 142.273 612.981 142.273C612.14 142.273 611.467 142.134 610.961 141.855C610.455 141.571 610.066 141.25 609.793 140.892C609.521 140.528 609.31 140.227 609.163 139.989H608.924V142H606.981ZM608.958 135.455C608.958 136.443 609.103 137.315 609.393 138.071C609.683 138.821 610.106 139.409 610.663 139.835C611.219 140.256 611.901 140.466 612.708 140.466C613.549 140.466 614.251 140.244 614.813 139.801C615.381 139.352 615.808 138.75 616.092 137.994C616.381 137.233 616.526 136.386 616.526 135.455C616.526 134.534 616.384 133.705 616.1 132.966C615.822 132.222 615.398 131.634 614.83 131.202C614.268 130.764 613.56 130.545 612.708 130.545C611.89 130.545 611.202 130.753 610.646 131.168C610.089 131.577 609.668 132.151 609.384 132.889C609.1 133.622 608.958 134.477 608.958 135.455ZM621.614 142V128.909H623.626V142H621.614ZM622.637 126.727C622.245 126.727 621.907 126.594 621.623 126.327C621.344 126.06 621.205 125.739 621.205 125.364C621.205 124.989 621.344 124.668 621.623 124.401C621.907 124.134 622.245 124 622.637 124C623.029 124 623.364 124.134 623.643 124.401C623.927 124.668 624.069 124.989 624.069 125.364C624.069 125.739 623.927 126.06 623.643 126.327C623.364 126.594 623.029 126.727 622.637 126.727ZM629.321 124.545V142H627.31V124.545H629.321ZM638.494 142.273C637.232 142.273 636.144 141.994 635.229 141.438C634.32 140.875 633.619 140.091 633.124 139.085C632.636 138.074 632.391 136.898 632.391 135.557C632.391 134.216 632.636 133.034 633.124 132.011C633.619 130.983 634.306 130.182 635.187 129.608C636.073 129.028 637.107 128.739 638.289 128.739C638.971 128.739 639.644 128.852 640.309 129.08C640.974 129.307 641.579 129.676 642.124 130.188C642.67 130.693 643.104 131.364 643.428 132.199C643.752 133.034 643.914 134.062 643.914 135.284V136.136H633.823V134.398H641.869C641.869 133.659 641.721 133 641.425 132.42C641.136 131.841 640.721 131.384 640.181 131.048C639.647 130.713 639.016 130.545 638.289 130.545C637.488 130.545 636.795 130.744 636.21 131.142C635.63 131.534 635.184 132.045 634.871 132.676C634.559 133.307 634.403 133.983 634.403 134.705V135.864C634.403 136.852 634.573 137.69 634.914 138.378C635.261 139.06 635.741 139.58 636.354 139.938C636.968 140.29 637.681 140.466 638.494 140.466C639.022 140.466 639.499 140.392 639.925 140.244C640.357 140.091 640.729 139.864 641.042 139.562C641.354 139.256 641.596 138.875 641.766 138.42L643.71 138.966C643.505 139.625 643.161 140.205 642.678 140.705C642.195 141.199 641.599 141.585 640.888 141.864C640.178 142.136 639.38 142.273 638.494 142.273ZM657.576 142.307C656.746 142.307 655.994 142.151 655.317 141.838C654.641 141.52 654.104 141.062 653.707 140.466C653.309 139.864 653.11 139.136 653.11 138.284C653.11 137.534 653.258 136.926 653.553 136.46C653.849 135.989 654.244 135.619 654.738 135.352C655.232 135.085 655.778 134.886 656.374 134.756C656.977 134.619 657.582 134.511 658.19 134.432C658.985 134.33 659.63 134.253 660.124 134.202C660.624 134.145 660.988 134.051 661.215 133.92C661.448 133.79 661.565 133.562 661.565 133.239V133.17C661.565 132.33 661.335 131.676 660.874 131.21C660.42 130.744 659.729 130.511 658.803 130.511C657.843 130.511 657.09 130.722 656.545 131.142C655.999 131.562 655.616 132.011 655.394 132.489L653.485 131.807C653.826 131.011 654.281 130.392 654.849 129.949C655.423 129.5 656.048 129.187 656.724 129.011C657.406 128.83 658.076 128.739 658.735 128.739C659.156 128.739 659.638 128.79 660.184 128.892C660.735 128.989 661.266 129.19 661.778 129.497C662.295 129.804 662.724 130.267 663.065 130.886C663.406 131.506 663.576 132.335 663.576 133.375V142H661.565V140.227H661.462C661.326 140.511 661.099 140.815 660.781 141.139C660.462 141.463 660.039 141.739 659.511 141.966C658.982 142.193 658.337 142.307 657.576 142.307ZM657.883 140.5C658.678 140.5 659.349 140.344 659.894 140.031C660.445 139.719 660.86 139.315 661.138 138.821C661.423 138.327 661.565 137.807 661.565 137.261V135.42C661.479 135.523 661.292 135.616 661.002 135.702C660.718 135.781 660.388 135.852 660.013 135.915C659.644 135.972 659.283 136.023 658.931 136.068C658.585 136.108 658.303 136.142 658.087 136.17C657.565 136.239 657.076 136.349 656.621 136.503C656.173 136.651 655.809 136.875 655.531 137.176C655.258 137.472 655.121 137.875 655.121 138.386C655.121 139.085 655.38 139.614 655.897 139.972C656.42 140.324 657.082 140.5 657.883 140.5ZM669.259 134.125V142H667.247V128.909H669.19V130.955H669.361C669.668 130.29 670.134 129.756 670.759 129.352C671.384 128.943 672.19 128.739 673.179 128.739C674.065 128.739 674.841 128.92 675.506 129.284C676.17 129.642 676.688 130.188 677.057 130.92C677.426 131.648 677.611 132.568 677.611 133.682V142H675.599V133.818C675.599 132.79 675.332 131.989 674.798 131.415C674.264 130.835 673.531 130.545 672.599 130.545C671.957 130.545 671.384 130.685 670.878 130.963C670.378 131.241 669.983 131.648 669.693 132.182C669.403 132.716 669.259 133.364 669.259 134.125ZM686.229 142.273C685.138 142.273 684.175 141.997 683.34 141.446C682.505 140.889 681.852 140.105 681.38 139.094C680.908 138.077 680.673 136.875 680.673 135.489C680.673 134.114 680.908 132.92 681.38 131.909C681.852 130.898 682.508 130.116 683.349 129.565C684.19 129.014 685.161 128.739 686.263 128.739C687.116 128.739 687.789 128.881 688.283 129.165C688.783 129.443 689.164 129.761 689.425 130.119C689.692 130.472 689.9 130.761 690.048 130.989H690.218V124.545H692.229V142H690.286V139.989H690.048C689.9 140.227 689.69 140.528 689.417 140.892C689.144 141.25 688.755 141.571 688.249 141.855C687.744 142.134 687.07 142.273 686.229 142.273ZM686.502 140.466C687.309 140.466 687.991 140.256 688.548 139.835C689.104 139.409 689.528 138.821 689.817 138.071C690.107 137.315 690.252 136.443 690.252 135.455C690.252 134.477 690.11 133.622 689.826 132.889C689.542 132.151 689.121 131.577 688.565 131.168C688.008 130.753 687.32 130.545 686.502 130.545C685.65 130.545 684.94 130.764 684.371 131.202C683.809 131.634 683.386 132.222 683.102 132.966C682.823 133.705 682.684 134.534 682.684 135.455C682.684 136.386 682.826 137.233 683.11 137.994C683.4 138.75 683.826 139.352 684.388 139.801C684.957 140.244 685.661 140.466 686.502 140.466ZM703.931 142H701.715L708.124 124.545H710.306L716.715 142H714.499L709.283 127.307H709.147L703.931 142ZM704.749 135.182H713.681V137.057H704.749V135.182ZM719.161 146.909V128.909H721.104V130.989H721.343C721.491 130.761 721.695 130.472 721.957 130.119C722.224 129.761 722.604 129.443 723.099 129.165C723.599 128.881 724.275 128.739 725.127 128.739C726.229 128.739 727.201 129.014 728.042 129.565C728.883 130.116 729.539 130.898 730.011 131.909C730.482 132.92 730.718 134.114 730.718 135.489C730.718 136.875 730.482 138.077 730.011 139.094C729.539 140.105 728.886 140.889 728.05 141.446C727.215 141.997 726.252 142.273 725.161 142.273C724.32 142.273 723.647 142.134 723.141 141.855C722.636 141.571 722.246 141.25 721.974 140.892C721.701 140.528 721.491 140.227 721.343 139.989H721.173V146.909H719.161ZM721.138 135.455C721.138 136.443 721.283 137.315 721.573 138.071C721.863 138.821 722.286 139.409 722.843 139.835C723.4 140.256 724.082 140.466 724.888 140.466C725.729 140.466 726.431 140.244 726.994 139.801C727.562 139.352 727.988 138.75 728.272 137.994C728.562 137.233 728.707 136.386 728.707 135.455C728.707 134.534 728.565 133.705 728.281 132.966C728.002 132.222 727.579 131.634 727.011 131.202C726.448 130.764 725.741 130.545 724.888 130.545C724.07 130.545 723.383 130.753 722.826 131.168C722.269 131.577 721.849 132.151 721.565 132.889C721.281 133.622 721.138 134.477 721.138 135.455ZM733.786 146.909V128.909H735.729V130.989H735.968C736.116 130.761 736.32 130.472 736.582 130.119C736.849 129.761 737.229 129.443 737.724 129.165C738.224 128.881 738.9 128.739 739.752 128.739C740.854 128.739 741.826 129.014 742.667 129.565C743.508 130.116 744.164 130.898 744.636 131.909C745.107 132.92 745.343 134.114 745.343 135.489C745.343 136.875 745.107 138.077 744.636 139.094C744.164 140.105 743.511 140.889 742.675 141.446C741.84 141.997 740.877 142.273 739.786 142.273C738.945 142.273 738.272 142.134 737.766 141.855C737.261 141.571 736.871 141.25 736.599 140.892C736.326 140.528 736.116 140.227 735.968 139.989H735.798V146.909H733.786ZM735.763 135.455C735.763 136.443 735.908 137.315 736.198 138.071C736.488 138.821 736.911 139.409 737.468 139.835C738.025 140.256 738.707 140.466 739.513 140.466C740.354 140.466 741.056 140.244 741.619 139.801C742.187 139.352 742.613 138.75 742.897 137.994C743.187 137.233 743.332 136.386 743.332 135.455C743.332 134.534 743.19 133.705 742.906 132.966C742.627 132.222 742.204 131.634 741.636 131.202C741.073 130.764 740.366 130.545 739.513 130.545C738.695 130.545 738.008 130.753 737.451 131.168C736.894 131.577 736.474 132.151 736.19 132.889C735.906 133.622 735.763 134.477 735.763 135.455ZM757.684 131.841L755.877 132.352C755.763 132.051 755.596 131.759 755.374 131.474C755.158 131.185 754.863 130.946 754.488 130.759C754.113 130.571 753.633 130.477 753.048 130.477C752.246 130.477 751.579 130.662 751.045 131.031C750.516 131.395 750.252 131.858 750.252 132.42C750.252 132.92 750.434 133.315 750.798 133.605C751.161 133.895 751.729 134.136 752.502 134.33L754.445 134.807C755.616 135.091 756.488 135.526 757.062 136.111C757.636 136.69 757.923 137.437 757.923 138.352C757.923 139.102 757.707 139.773 757.275 140.364C756.849 140.955 756.252 141.42 755.485 141.761C754.718 142.102 753.826 142.273 752.809 142.273C751.474 142.273 750.369 141.983 749.494 141.403C748.619 140.824 748.065 139.977 747.832 138.864L749.741 138.386C749.923 139.091 750.266 139.619 750.772 139.972C751.283 140.324 751.951 140.5 752.775 140.5C753.712 140.5 754.457 140.301 755.008 139.903C755.565 139.5 755.843 139.017 755.843 138.455C755.843 138 755.684 137.619 755.366 137.312C755.048 137 754.559 136.767 753.9 136.614L751.718 136.102C750.519 135.818 749.638 135.378 749.076 134.781C748.519 134.179 748.241 133.426 748.241 132.523C748.241 131.784 748.448 131.131 748.863 130.562C749.283 129.994 749.854 129.548 750.576 129.224C751.303 128.901 752.127 128.739 753.048 128.739C754.343 128.739 755.36 129.023 756.099 129.591C756.843 130.159 757.371 130.909 757.684 131.841ZM773.359 142H767.973V124.545H773.598C775.291 124.545 776.74 124.895 777.945 125.594C779.149 126.287 780.072 127.284 780.714 128.585C781.357 129.881 781.678 131.432 781.678 133.239C781.678 135.057 781.354 136.622 780.706 137.935C780.058 139.241 779.115 140.247 777.876 140.952C776.638 141.651 775.132 142 773.359 142ZM770.087 140.125H773.223C774.666 140.125 775.862 139.847 776.811 139.29C777.76 138.733 778.467 137.94 778.933 136.912C779.399 135.884 779.632 134.659 779.632 133.239C779.632 131.83 779.402 130.616 778.942 129.599C778.482 128.577 777.794 127.793 776.879 127.247C775.964 126.696 774.825 126.42 773.462 126.42H770.087V140.125ZM790.439 142.273C789.178 142.273 788.089 141.994 787.175 141.438C786.266 140.875 785.564 140.091 785.07 139.085C784.581 138.074 784.337 136.898 784.337 135.557C784.337 134.216 784.581 133.034 785.07 132.011C785.564 130.983 786.251 130.182 787.132 129.608C788.018 129.028 789.053 128.739 790.234 128.739C790.916 128.739 791.589 128.852 792.254 129.08C792.919 129.307 793.524 129.676 794.07 130.188C794.615 130.693 795.05 131.364 795.374 132.199C795.697 133.034 795.859 134.062 795.859 135.284V136.136H785.768V134.398H793.814C793.814 133.659 793.666 133 793.371 132.42C793.081 131.841 792.666 131.384 792.126 131.048C791.592 130.713 790.962 130.545 790.234 130.545C789.433 130.545 788.74 130.744 788.155 131.142C787.575 131.534 787.129 132.045 786.817 132.676C786.504 133.307 786.348 133.983 786.348 134.705V135.864C786.348 136.852 786.518 137.69 786.859 138.378C787.206 139.06 787.686 139.58 788.3 139.938C788.913 140.29 789.626 140.466 790.439 140.466C790.967 140.466 791.445 140.392 791.871 140.244C792.303 140.091 792.675 139.864 792.987 139.562C793.3 139.256 793.541 138.875 793.712 138.42L795.655 138.966C795.45 139.625 795.107 140.205 794.624 140.705C794.141 141.199 793.544 141.585 792.834 141.864C792.124 142.136 791.325 142.273 790.439 142.273ZM809.225 128.909L804.384 142H802.339L797.498 128.909H799.68L803.293 139.341H803.43L807.043 128.909H809.225ZM816.9 142.273C815.638 142.273 814.55 141.994 813.636 141.438C812.727 140.875 812.025 140.091 811.531 139.085C811.042 138.074 810.798 136.898 810.798 135.557C810.798 134.216 811.042 133.034 811.531 132.011C812.025 130.983 812.712 130.182 813.593 129.608C814.479 129.028 815.513 128.739 816.695 128.739C817.377 128.739 818.05 128.852 818.715 129.08C819.38 129.307 819.985 129.676 820.531 130.188C821.076 130.693 821.511 131.364 821.835 132.199C822.158 133.034 822.32 134.062 822.32 135.284V136.136H812.229V134.398H820.275C820.275 133.659 820.127 133 819.832 132.42C819.542 131.841 819.127 131.384 818.587 131.048C818.053 130.713 817.423 130.545 816.695 130.545C815.894 130.545 815.201 130.744 814.616 131.142C814.036 131.534 813.59 132.045 813.278 132.676C812.965 133.307 812.809 133.983 812.809 134.705V135.864C812.809 136.852 812.979 137.69 813.32 138.378C813.667 139.06 814.147 139.58 814.761 139.938C815.374 140.29 816.087 140.466 816.9 140.466C817.428 140.466 817.906 140.392 818.332 140.244C818.763 140.091 819.136 139.864 819.448 139.562C819.761 139.256 820.002 138.875 820.173 138.42L822.116 138.966C821.911 139.625 821.567 140.205 821.085 140.705C820.602 141.199 820.005 141.585 819.295 141.864C818.585 142.136 817.786 142.273 816.9 142.273ZM827.391 124.545V142H825.38V124.545H827.391ZM836.393 142.273C835.212 142.273 834.175 141.991 833.283 141.429C832.396 140.866 831.703 140.08 831.203 139.068C830.709 138.057 830.462 136.875 830.462 135.523C830.462 134.159 830.709 132.969 831.203 131.952C831.703 130.935 832.396 130.145 833.283 129.582C834.175 129.02 835.212 128.739 836.393 128.739C837.575 128.739 838.609 129.02 839.496 129.582C840.388 130.145 841.081 130.935 841.575 131.952C842.075 132.969 842.325 134.159 842.325 135.523C842.325 136.875 842.075 138.057 841.575 139.068C841.081 140.08 840.388 140.866 839.496 141.429C838.609 141.991 837.575 142.273 836.393 142.273ZM836.393 140.466C837.291 140.466 838.03 140.236 838.609 139.776C839.189 139.315 839.618 138.71 839.896 137.96C840.175 137.21 840.314 136.398 840.314 135.523C840.314 134.648 840.175 133.832 839.896 133.077C839.618 132.321 839.189 131.71 838.609 131.244C838.03 130.778 837.291 130.545 836.393 130.545C835.496 130.545 834.757 130.778 834.178 131.244C833.598 131.71 833.169 132.321 832.891 133.077C832.612 133.832 832.473 134.648 832.473 135.523C832.473 136.398 832.612 137.21 832.891 137.96C833.169 138.71 833.598 139.315 834.178 139.776C834.757 140.236 835.496 140.466 836.393 140.466ZM845.396 146.909V128.909H847.339V130.989H847.577C847.725 130.761 847.93 130.472 848.191 130.119C848.458 129.761 848.839 129.443 849.333 129.165C849.833 128.881 850.509 128.739 851.362 128.739C852.464 128.739 853.435 129.014 854.276 129.565C855.117 130.116 855.773 130.898 856.245 131.909C856.717 132.92 856.952 134.114 856.952 135.489C856.952 136.875 856.717 138.077 856.245 139.094C855.773 140.105 855.12 140.889 854.285 141.446C853.45 141.997 852.487 142.273 851.396 142.273C850.555 142.273 849.881 142.134 849.376 141.855C848.87 141.571 848.481 141.25 848.208 140.892C847.935 140.528 847.725 140.227 847.577 139.989H847.407V146.909H845.396ZM847.373 135.455C847.373 136.443 847.518 137.315 847.808 138.071C848.097 138.821 848.521 139.409 849.077 139.835C849.634 140.256 850.316 140.466 851.123 140.466C851.964 140.466 852.665 140.244 853.228 139.801C853.796 139.352 854.222 138.75 854.506 137.994C854.796 137.233 854.941 136.386 854.941 135.455C854.941 134.534 854.799 133.705 854.515 132.966C854.237 132.222 853.813 131.634 853.245 131.202C852.683 130.764 851.975 130.545 851.123 130.545C850.305 130.545 849.617 130.753 849.06 131.168C848.504 131.577 848.083 132.151 847.799 132.889C847.515 133.622 847.373 134.477 847.373 135.455ZM860.021 142V128.909H861.964V130.955H862.134C862.407 130.256 862.847 129.713 863.455 129.327C864.063 128.935 864.793 128.739 865.646 128.739C866.509 128.739 867.228 128.935 867.802 129.327C868.381 129.713 868.833 130.256 869.157 130.955H869.293C869.629 130.278 870.131 129.741 870.802 129.344C871.472 128.94 872.276 128.739 873.214 128.739C874.384 128.739 875.342 129.105 876.086 129.838C876.83 130.565 877.202 131.699 877.202 133.239V142H875.191V133.239C875.191 132.273 874.927 131.582 874.398 131.168C873.87 130.753 873.248 130.545 872.532 130.545C871.612 130.545 870.898 130.824 870.393 131.381C869.887 131.932 869.634 132.631 869.634 133.477V142H867.589V133.034C867.589 132.29 867.347 131.69 866.864 131.236C866.381 130.776 865.759 130.545 864.998 130.545C864.475 130.545 863.987 130.685 863.532 130.963C863.083 131.241 862.719 131.628 862.441 132.122C862.168 132.611 862.032 133.176 862.032 133.818V142H860.021ZM886.369 142.273C885.107 142.273 884.019 141.994 883.104 141.438C882.195 140.875 881.494 140.091 880.999 139.085C880.511 138.074 880.266 136.898 880.266 135.557C880.266 134.216 880.511 133.034 880.999 132.011C881.494 130.983 882.181 130.182 883.062 129.608C883.948 129.028 884.982 128.739 886.164 128.739C886.846 128.739 887.519 128.852 888.184 129.08C888.849 129.307 889.454 129.676 889.999 130.188C890.545 130.693 890.979 131.364 891.303 132.199C891.627 133.034 891.789 134.062 891.789 135.284V136.136H881.698V134.398H889.744C889.744 133.659 889.596 133 889.3 132.42C889.011 131.841 888.596 131.384 888.056 131.048C887.522 130.713 886.891 130.545 886.164 130.545C885.363 130.545 884.67 130.744 884.085 131.142C883.505 131.534 883.059 132.045 882.746 132.676C882.434 133.307 882.278 133.983 882.278 134.705V135.864C882.278 136.852 882.448 137.69 882.789 138.378C883.136 139.06 883.616 139.58 884.229 139.938C884.843 140.29 885.556 140.466 886.369 140.466C886.897 140.466 887.374 140.392 887.8 140.244C888.232 140.091 888.604 139.864 888.917 139.562C889.229 139.256 889.471 138.875 889.641 138.42L891.585 138.966C891.38 139.625 891.036 140.205 890.553 140.705C890.07 141.199 889.474 141.585 888.763 141.864C888.053 142.136 887.255 142.273 886.369 142.273ZM896.86 134.125V142H894.849V128.909H896.792V130.955H896.962C897.269 130.29 897.735 129.756 898.36 129.352C898.985 128.943 899.792 128.739 900.781 128.739C901.667 128.739 902.442 128.92 903.107 129.284C903.772 129.642 904.289 130.188 904.658 130.92C905.028 131.648 905.212 132.568 905.212 133.682V142H903.201V133.818C903.201 132.79 902.934 131.989 902.4 131.415C901.866 130.835 901.133 130.545 900.201 130.545C899.559 130.545 898.985 130.685 898.479 130.963C897.979 131.241 897.585 131.648 897.295 132.182C897.005 132.716 896.86 133.364 896.86 134.125ZM914.581 128.909V130.614H907.797V128.909H914.581ZM909.774 125.773H911.786V138.25C911.786 138.818 911.868 139.244 912.033 139.528C912.203 139.807 912.419 139.994 912.68 140.091C912.947 140.182 913.229 140.227 913.524 140.227C913.746 140.227 913.928 140.216 914.07 140.193C914.212 140.165 914.325 140.142 914.411 140.125L914.82 141.932C914.683 141.983 914.493 142.034 914.249 142.085C914.004 142.142 913.695 142.17 913.32 142.17C912.751 142.17 912.195 142.048 911.649 141.804C911.109 141.56 910.661 141.188 910.303 140.688C909.95 140.188 909.774 139.557 909.774 138.795V125.773Z" fill="#010D5B"/>
</svg>
