<svg width="485" height="387" viewBox="0 0 485 387" fill="none" xmlns="http://www.w3.org/2000/svg">
<path d="M371.93 41.2153C358.789 18.4533 329.683 10.6544 306.921 23.7961C284.159 36.9378 276.36 66.0435 289.502 88.8055L377.879 241.88C391.021 264.642 420.127 272.441 442.889 259.299C465.651 246.158 473.45 217.052 460.308 194.29L371.93 41.2153Z" fill="white"/>
<g filter="url(#filter0_f_18_11)">
<path d="M372.5 42.5C370.251 37.8164 367.423 34.5967 363 30L304 115L341.5 179L382.5 107.5C387.528 99.3092 389.117 94.3255 389 84.5C388.706 76.9922 388.696 73.6204 387 67.5L372.5 42.5Z" fill="#010D5B" fill-opacity="0.2"/>
</g>
<path d="M371.734 88.8046C384.875 66.0425 377.076 36.9368 354.314 23.7951C331.552 10.6534 302.447 18.4523 289.305 41.2143L200.927 194.289C187.786 217.051 195.584 246.157 218.347 259.298C241.109 272.44 270.214 264.641 283.356 241.879L371.734 88.8046Z" fill="url(#paint0_linear_18_11)"/>
<path d="M194.79 41.2169C181.649 18.4549 152.543 10.656 129.781 23.7977C107.019 36.9393 99.2199 66.0451 112.362 88.8071L200.739 241.882C213.881 264.644 242.987 272.443 265.749 259.301C288.511 246.159 296.31 217.054 283.168 194.291L194.79 41.2169Z" fill="white"/>
<g filter="url(#filter1_f_18_11)">
<path d="M195.5 42.5C193.251 37.8164 190.423 34.5967 186 30L127 115L164.5 179L205.5 107.5C210.528 99.3092 212.117 94.3255 212 84.5C211.706 76.9922 211.696 73.6204 210 67.5L195.5 42.5Z" fill="#010D5B" fill-opacity="0.2"/>
</g>
<path d="M194.601 88.8071C207.743 66.0451 199.944 36.9394 177.182 23.7977C154.42 10.656 125.314 18.4549 112.173 41.2169L23.7951 194.291C10.6534 217.054 18.4523 246.159 41.2143 259.301C63.9764 272.443 93.0821 264.644 106.224 241.882L194.601 88.8071Z" fill="url(#paint1_linear_18_11)"/>
<path d="M33.7679 358.164L29.9358 362.032L6.31084 342.309L29.9358 322.586L33.7679 326.489L14.6077 342.239L33.7679 358.164ZM445.736 311.793L421.619 369.028H415.783L439.9 311.793H445.736ZM451.473 326.489L455.27 322.586L478.895 342.309L455.27 362.032L451.473 358.164L470.633 342.379L451.473 326.489Z" fill="white"/>
<path d="M71.8772 361.469V336.121C71.8772 335.02 71.8304 334.118 71.7366 333.414C71.6663 332.711 71.5374 332.161 71.3499 331.762C71.1858 331.34 70.9632 331.047 70.6819 330.883C70.4241 330.719 70.096 330.637 69.6976 330.637C69.2288 330.637 68.7952 330.778 68.3968 331.059C67.9983 331.34 67.5647 331.797 67.096 332.43C66.6507 333.063 66.1468 333.907 65.5843 334.961C65.0452 335.993 64.4007 337.27 63.6507 338.793V361.469H58.0608V336.789C58.0608 335.5 58.014 334.457 57.9202 333.661C57.8499 332.864 57.721 332.243 57.5335 331.797C57.3694 331.352 57.1468 331.047 56.8655 330.883C56.5843 330.719 56.2444 330.637 55.846 330.637C55.4241 330.637 55.0257 330.754 54.6507 330.989C54.2757 331.223 53.8538 331.645 53.3851 332.254C52.9397 332.864 52.4358 333.696 51.8733 334.75C51.3108 335.805 50.6429 337.153 49.8694 338.793V361.469H44.2444V326.172H48.9202L49.2015 332.887C49.8108 331.551 50.3968 330.414 50.9593 329.477C51.5452 328.539 52.1429 327.789 52.7522 327.227C53.3616 326.641 54.0061 326.219 54.6858 325.961C55.389 325.68 56.1624 325.539 57.0061 325.539C58.9046 325.539 60.346 326.161 61.3304 327.403C62.3147 328.645 62.8069 330.567 62.8069 333.168C63.3694 331.95 63.9202 330.871 64.4593 329.934C64.9983 328.973 65.5726 328.176 66.1819 327.543C66.8147 326.887 67.5061 326.395 68.2561 326.067C69.0061 325.715 69.8733 325.539 70.8577 325.539C75.2874 325.539 77.5022 328.95 77.5022 335.77V361.469H71.8772ZM117.018 343.539C117.018 346.282 116.631 348.801 115.858 351.098C115.084 353.371 113.971 355.328 112.518 356.969C111.065 358.586 109.295 359.852 107.209 360.766C105.123 361.657 102.756 362.102 100.108 362.102C97.5765 362.102 95.303 361.715 93.2874 360.942C91.2952 360.145 89.596 358.985 88.1897 357.461C86.8069 355.938 85.7405 354.051 84.9905 351.801C84.264 349.551 83.9007 346.961 83.9007 344.032C83.9007 341.289 84.2874 338.793 85.0608 336.543C85.8343 334.27 86.9476 332.325 88.4007 330.707C89.8538 329.067 91.6233 327.801 93.7093 326.911C95.7952 325.996 98.1624 325.539 100.811 325.539C103.342 325.539 105.604 325.938 107.596 326.735C109.612 327.508 111.311 328.657 112.694 330.18C114.1 331.68 115.166 333.555 115.893 335.805C116.643 338.055 117.018 340.633 117.018 343.539ZM110.76 343.821C110.76 341.641 110.514 339.743 110.022 338.125C109.553 336.485 108.873 335.125 107.983 334.047C107.092 332.946 106.002 332.125 104.713 331.586C103.448 331.024 102.03 330.743 100.459 330.743C98.6311 330.743 97.0608 331.106 95.7483 331.832C94.4593 332.536 93.3929 333.485 92.5491 334.68C91.7288 335.875 91.1194 337.27 90.721 338.864C90.346 340.434 90.1585 342.086 90.1585 343.821C90.1585 346 90.3929 347.911 90.8616 349.551C91.3538 351.192 92.0452 352.563 92.9358 353.664C93.8265 354.743 94.9046 355.563 96.1702 356.125C97.4358 356.664 98.8655 356.934 100.459 356.934C102.287 356.934 103.846 356.582 105.135 355.879C106.448 355.153 107.514 354.192 108.334 352.996C109.178 351.801 109.787 350.418 110.162 348.848C110.561 347.254 110.76 345.578 110.76 343.821ZM125.877 326.172H131.326L131.573 331.868C132.604 330.649 133.6 329.641 134.561 328.844C135.522 328.024 136.459 327.368 137.373 326.875C138.311 326.383 139.26 326.043 140.221 325.856C141.182 325.645 142.178 325.539 143.209 325.539C146.842 325.539 149.584 326.618 151.436 328.774C153.311 330.907 154.248 334.129 154.248 338.442V361.469H148.131V338.934C148.131 336.168 147.616 334.129 146.584 332.817C145.553 331.481 144.018 330.813 141.979 330.813C141.229 330.813 140.491 330.93 139.764 331.164C139.061 331.375 138.323 331.762 137.549 332.325C136.776 332.864 135.932 333.602 135.018 334.539C134.127 335.477 133.119 336.649 131.994 338.055V361.469H125.877V326.172ZM190.881 331.164C191.537 331.985 192.041 332.946 192.393 334.047C192.768 335.125 192.955 336.297 192.955 337.563C192.955 339.391 192.616 341.067 191.936 342.59C191.28 344.09 190.342 345.379 189.123 346.457C187.905 347.536 186.44 348.379 184.729 348.989C183.041 349.575 181.178 349.868 179.139 349.868C177.662 349.868 176.28 349.715 174.991 349.411C173.701 349.082 172.682 348.684 171.932 348.215C171.487 348.871 171.112 349.493 170.807 350.078C170.502 350.664 170.35 351.321 170.35 352.047C170.35 352.938 170.772 353.676 171.616 354.262C172.483 354.848 173.619 355.164 175.026 355.211L184.307 355.563C186.065 355.61 187.682 355.832 189.158 356.231C190.658 356.629 191.936 357.203 192.991 357.953C194.069 358.703 194.901 359.629 195.487 360.731C196.096 361.832 196.401 363.11 196.401 364.563C196.401 366.133 196.061 367.621 195.381 369.028C194.701 370.434 193.647 371.664 192.217 372.719C190.811 373.797 189.018 374.653 186.838 375.286C184.658 375.918 182.069 376.235 179.069 376.235C176.209 376.235 173.772 376 171.756 375.532C169.764 375.086 168.123 374.453 166.834 373.633C165.545 372.836 164.608 371.875 164.022 370.75C163.436 369.649 163.143 368.43 163.143 367.094C163.143 365.383 163.541 363.883 164.338 362.594C165.135 361.305 166.366 360.063 168.03 358.868C167.42 358.586 166.893 358.235 166.448 357.813C166.002 357.391 165.639 356.934 165.358 356.442C165.076 355.926 164.866 355.387 164.725 354.825C164.584 354.262 164.514 353.711 164.514 353.172C164.514 351.649 164.866 350.254 165.569 348.989C166.295 347.723 167.151 346.528 168.135 345.403C167.69 344.864 167.291 344.336 166.94 343.821C166.612 343.305 166.319 342.754 166.061 342.168C165.826 341.559 165.639 340.914 165.498 340.235C165.381 339.532 165.323 338.735 165.323 337.844C165.323 336.016 165.651 334.352 166.307 332.852C166.987 331.328 167.924 330.028 169.119 328.95C170.338 327.871 171.791 327.039 173.479 326.453C175.19 325.844 177.076 325.539 179.139 325.539C180.006 325.539 180.838 325.598 181.635 325.715C182.432 325.832 183.135 325.985 183.744 326.172H196.541V331.164H190.881ZM169.647 366.567C169.647 368.231 170.514 369.438 172.248 370.188C173.983 370.961 176.397 371.348 179.491 371.348C181.436 371.348 183.065 371.172 184.377 370.821C185.713 370.469 186.78 370 187.576 369.414C188.397 368.852 188.983 368.196 189.334 367.446C189.686 366.719 189.862 365.969 189.862 365.196C189.862 363.766 189.276 362.711 188.104 362.032C186.932 361.352 185.139 360.953 182.725 360.836L173.514 360.52C172.741 361.036 172.096 361.539 171.58 362.032C171.088 362.524 170.701 363.016 170.42 363.508C170.139 364.024 169.94 364.528 169.823 365.02C169.705 365.536 169.647 366.051 169.647 366.567ZM171.51 337.703C171.51 338.828 171.698 339.86 172.073 340.797C172.448 341.735 172.975 342.532 173.655 343.188C174.334 343.844 175.131 344.36 176.045 344.735C176.983 345.086 178.014 345.262 179.139 345.262C180.358 345.262 181.436 345.063 182.373 344.664C183.334 344.243 184.131 343.68 184.764 342.977C185.42 342.274 185.912 341.465 186.241 340.551C186.592 339.637 186.768 338.688 186.768 337.703C186.768 336.578 186.58 335.547 186.205 334.61C185.83 333.672 185.303 332.875 184.623 332.219C183.944 331.563 183.135 331.059 182.198 330.707C181.283 330.332 180.264 330.145 179.139 330.145C177.92 330.145 176.83 330.356 175.869 330.778C174.932 331.2 174.135 331.762 173.479 332.465C172.846 333.145 172.354 333.942 172.002 334.856C171.674 335.77 171.51 336.719 171.51 337.703ZM235.776 343.539C235.776 346.282 235.389 348.801 234.616 351.098C233.842 353.371 232.729 355.328 231.276 356.969C229.823 358.586 228.053 359.852 225.967 360.766C223.881 361.657 221.514 362.102 218.866 362.102C216.334 362.102 214.061 361.715 212.045 360.942C210.053 360.145 208.354 358.985 206.948 357.461C205.565 355.938 204.498 354.051 203.748 351.801C203.022 349.551 202.658 346.961 202.658 344.032C202.658 341.289 203.045 338.793 203.819 336.543C204.592 334.27 205.705 332.325 207.158 330.707C208.612 329.067 210.381 327.801 212.467 326.911C214.553 325.996 216.92 325.539 219.569 325.539C222.1 325.539 224.362 325.938 226.354 326.735C228.369 327.508 230.069 328.657 231.451 330.18C232.858 331.68 233.924 333.555 234.651 335.805C235.401 338.055 235.776 340.633 235.776 343.539ZM229.518 343.821C229.518 341.641 229.272 339.743 228.78 338.125C228.311 336.485 227.631 335.125 226.741 334.047C225.85 332.946 224.76 332.125 223.471 331.586C222.205 331.024 220.787 330.743 219.217 330.743C217.389 330.743 215.819 331.106 214.506 331.832C213.217 332.536 212.151 333.485 211.307 334.68C210.487 335.875 209.877 337.27 209.479 338.864C209.104 340.434 208.916 342.086 208.916 343.821C208.916 346 209.151 347.911 209.619 349.551C210.112 351.192 210.803 352.563 211.694 353.664C212.584 354.743 213.662 355.563 214.928 356.125C216.194 356.664 217.623 356.934 219.217 356.934C221.045 356.934 222.604 356.582 223.893 355.879C225.205 355.153 226.272 354.192 227.092 352.996C227.936 351.801 228.545 350.418 228.92 348.848C229.319 347.254 229.518 345.578 229.518 343.821ZM242.842 344.559C242.842 341.559 243.252 338.899 244.073 336.578C244.893 334.235 246.053 332.266 247.553 330.672C249.076 329.055 250.893 327.836 253.002 327.016C255.135 326.172 257.502 325.75 260.104 325.75C261.229 325.75 262.33 325.821 263.408 325.961C264.51 326.102 265.588 326.325 266.643 326.629V311.793H272.795V361.469H267.311L267.1 354.789C265.389 357.274 263.537 359.114 261.545 360.309C259.553 361.504 257.397 362.102 255.076 362.102C253.061 362.102 251.28 361.68 249.733 360.836C248.209 359.993 246.932 358.809 245.901 357.286C244.893 355.739 244.131 353.887 243.616 351.731C243.1 349.575 242.842 347.184 242.842 344.559ZM249.1 344.172C249.1 348.438 249.721 351.625 250.963 353.735C252.229 355.821 254.01 356.864 256.307 356.864C257.854 356.864 259.483 356.172 261.194 354.789C262.928 353.407 264.744 351.356 266.643 348.637V332.254C265.635 331.786 264.522 331.434 263.303 331.2C262.084 330.942 260.877 330.813 259.682 330.813C256.354 330.813 253.752 331.891 251.877 334.047C250.026 336.203 249.1 339.578 249.1 344.172ZM296.244 331.235H285.803V326.172H302.432V356.371H312.944V361.469H284.643V356.371H296.244V331.235ZM298.389 311.371C299.069 311.371 299.701 311.5 300.287 311.758C300.873 311.993 301.377 312.332 301.799 312.778C302.244 313.223 302.584 313.739 302.819 314.325C303.076 314.887 303.205 315.508 303.205 316.188C303.205 316.844 303.076 317.465 302.819 318.051C302.584 318.637 302.244 319.153 301.799 319.598C301.377 320.043 300.873 320.395 300.287 320.653C299.701 320.887 299.069 321.004 298.389 321.004C297.709 321.004 297.076 320.887 296.491 320.653C295.905 320.395 295.389 320.043 294.944 319.598C294.522 319.153 294.182 318.637 293.924 318.051C293.69 317.465 293.573 316.844 293.573 316.188C293.573 315.508 293.69 314.887 293.924 314.325C294.182 313.739 294.522 313.223 294.944 312.778C295.389 312.332 295.905 311.993 296.491 311.758C297.076 311.5 297.709 311.371 298.389 311.371ZM323.807 326.172H329.256L329.502 331.868C330.534 330.649 331.53 329.641 332.491 328.844C333.451 328.024 334.389 327.368 335.303 326.875C336.241 326.383 337.19 326.043 338.151 325.856C339.112 325.645 340.108 325.539 341.139 325.539C344.772 325.539 347.514 326.618 349.366 328.774C351.241 330.907 352.178 334.129 352.178 338.442V361.469H346.061V338.934C346.061 336.168 345.545 334.129 344.514 332.817C343.483 331.481 341.948 330.813 339.909 330.813C339.159 330.813 338.42 330.93 337.694 331.164C336.991 331.375 336.252 331.762 335.479 332.325C334.705 332.864 333.862 333.602 332.948 334.539C332.057 335.477 331.049 336.649 329.924 338.055V361.469H323.807V326.172ZM388.811 331.164C389.467 331.985 389.971 332.946 390.323 334.047C390.698 335.125 390.885 336.297 390.885 337.563C390.885 339.391 390.545 341.067 389.866 342.59C389.209 344.09 388.272 345.379 387.053 346.457C385.834 347.536 384.369 348.379 382.659 348.989C380.971 349.575 379.108 349.868 377.069 349.868C375.592 349.868 374.209 349.715 372.92 349.411C371.631 349.082 370.612 348.684 369.862 348.215C369.416 348.871 369.041 349.493 368.737 350.078C368.432 350.664 368.28 351.321 368.28 352.047C368.28 352.938 368.701 353.676 369.545 354.262C370.412 354.848 371.549 355.164 372.955 355.211L382.237 355.563C383.994 355.61 385.612 355.832 387.088 356.231C388.588 356.629 389.866 357.203 390.92 357.953C391.998 358.703 392.83 359.629 393.416 360.731C394.026 361.832 394.33 363.11 394.33 364.563C394.33 366.133 393.991 367.621 393.311 369.028C392.631 370.434 391.576 371.664 390.147 372.719C388.741 373.797 386.948 374.653 384.768 375.286C382.588 375.918 379.998 376.235 376.998 376.235C374.139 376.235 371.701 376 369.686 375.532C367.694 375.086 366.053 374.453 364.764 373.633C363.475 372.836 362.537 371.875 361.951 370.75C361.366 369.649 361.073 368.43 361.073 367.094C361.073 365.383 361.471 363.883 362.268 362.594C363.065 361.305 364.295 360.063 365.959 358.868C365.35 358.586 364.823 358.235 364.377 357.813C363.932 357.391 363.569 356.934 363.287 356.442C363.006 355.926 362.795 355.387 362.655 354.825C362.514 354.262 362.444 353.711 362.444 353.172C362.444 351.649 362.795 350.254 363.498 348.989C364.225 347.723 365.08 346.528 366.065 345.403C365.619 344.864 365.221 344.336 364.869 343.821C364.541 343.305 364.248 342.754 363.991 342.168C363.756 341.559 363.569 340.914 363.428 340.235C363.311 339.532 363.252 338.735 363.252 337.844C363.252 336.016 363.58 334.352 364.237 332.852C364.916 331.328 365.854 330.028 367.049 328.95C368.268 327.871 369.721 327.039 371.409 326.453C373.119 325.844 375.006 325.539 377.069 325.539C377.936 325.539 378.768 325.598 379.565 325.715C380.362 325.832 381.065 325.985 381.674 326.172H394.471V331.164H388.811ZM367.576 366.567C367.576 368.231 368.444 369.438 370.178 370.188C371.912 370.961 374.326 371.348 377.42 371.348C379.366 371.348 380.994 371.172 382.307 370.821C383.643 370.469 384.709 370 385.506 369.414C386.326 368.852 386.912 368.196 387.264 367.446C387.616 366.719 387.791 365.969 387.791 365.196C387.791 363.766 387.205 362.711 386.034 362.032C384.862 361.352 383.069 360.953 380.655 360.836L371.444 360.52C370.67 361.036 370.026 361.539 369.51 362.032C369.018 362.524 368.631 363.016 368.35 363.508C368.069 364.024 367.869 364.528 367.752 365.02C367.635 365.536 367.576 366.051 367.576 366.567ZM369.44 337.703C369.44 338.828 369.627 339.86 370.002 340.797C370.377 341.735 370.905 342.532 371.584 343.188C372.264 343.844 373.061 344.36 373.975 344.735C374.912 345.086 375.944 345.262 377.069 345.262C378.287 345.262 379.366 345.063 380.303 344.664C381.264 344.243 382.061 343.68 382.694 342.977C383.35 342.274 383.842 341.465 384.17 340.551C384.522 339.637 384.698 338.688 384.698 337.703C384.698 336.578 384.51 335.547 384.135 334.61C383.76 333.672 383.233 332.875 382.553 332.219C381.873 331.563 381.065 331.059 380.127 330.707C379.213 330.332 378.194 330.145 377.069 330.145C375.85 330.145 374.76 330.356 373.799 330.778C372.862 331.2 372.065 331.762 371.409 332.465C370.776 333.145 370.284 333.942 369.932 334.856C369.604 335.77 369.44 336.719 369.44 337.703Z" fill="url(#paint2_linear_18_11)"/>
<defs>
<filter id="filter0_f_18_11" x="289" y="15" width="115.006" height="179" filterUnits="userSpaceOnUse" color-interpolation-filters="sRGB">
<feFlood flood-opacity="0" result="BackgroundImageFix"/>
<feBlend mode="normal" in="SourceGraphic" in2="BackgroundImageFix" result="shape"/>
<feGaussianBlur stdDeviation="7.5" result="effect1_foregroundBlur_18_11"/>
</filter>
<filter id="filter1_f_18_11" x="112" y="15" width="115.006" height="179" filterUnits="userSpaceOnUse" color-interpolation-filters="sRGB">
<feFlood flood-opacity="0" result="BackgroundImageFix"/>
<feBlend mode="normal" in="SourceGraphic" in2="BackgroundImageFix" result="shape"/>
<feGaussianBlur stdDeviation="7.5" result="effect1_foregroundBlur_18_11"/>
</filter>
<linearGradient id="paint0_linear_18_11" x1="354.314" y1="23.7951" x2="218.347" y2="259.298" gradientUnits="userSpaceOnUse">
<stop stop-color="#00BCE5"/>
<stop offset="1" stop-color="#04D4FF"/>
</linearGradient>
<linearGradient id="paint1_linear_18_11" x1="177.182" y1="23.7977" x2="41.2143" y2="259.301" gradientUnits="userSpaceOnUse">
<stop stop-color="#00BCE6"/>
<stop offset="1" stop-color="#04D4FF"/>
</linearGradient>
<linearGradient id="paint2_linear_18_11" x1="242.603" y1="302.469" x2="242.603" y2="386.469" gradientUnits="userSpaceOnUse">
<stop stop-color="#04D4FF"/>
<stop offset="1" stop-color="#04D4FF" stop-opacity="0.5"/>
</linearGradient>
</defs>
</svg>
